v 1.000000e+00 -1.000000e+00 -1.000000e+00
vn 4.082483e-01 -4.082483e-01 -8.164966e-01
v 1.000000e+00 -1.000000e+00 1.000000e+00
vn 6.666667e-01 -6.666667e-01 3.333333e-01
v -1.000000e+00 -1.000000e+00 1.000000e+00
vn -6.666667e-01 -3.333333e-01 6.666667e-01
v -1.000000e+00 -1.000000e+00 -1.000000e+00
vn -4.082483e-01 -8.164966e-01 -4.082483e-01
v 1.000000e+00 1.000000e+00 -1.000000e+00
vn 8.164966e-01 4.082483e-01 -4.082483e-01
v 1.000000e+00 1.000000e+00 1.000000e+00
vn 3.333333e-01 6.666667e-01 6.666667e-01
v -1.000000e+00 1.000000e+00 1.000000e+00
vn -5.773503e-01 5.773503e-01 5.773503e-01
v -1.000000e+00 1.000000e+00 -1.000000e+00
vn -5.773503e-01 5.773503e-01 -5.773503e-01
vt 7.499680e-01 1.250320e-01
vt 4.999890e-01 1.250320e-01
vt 4.999890e-01 3.750110e-01
vt 2.500110e-01 3.750110e-01
vt 3.200000e-05 3.750110e-01
vt 3.200000e-05 6.249890e-01
vt 2.500110e-01 6.249890e-01
vt 4.999890e-01 6.249890e-01
vt 4.999890e-01 8.749680e-01
vt 7.499680e-01 8.749680e-01
vt 7.499680e-01 6.249890e-01
vt 9.999460e-01 6.249890e-01
vt 9.999460e-01 3.750110e-01
vt 7.499680e-01 3.750110e-01
f 4/7/4 2/5/2 3/4/3
f 6/14/6 8/8/8 7/3/7
f 2/13/2 5/11/5 6/14/6
f 3/2/3 6/14/6 7/3/7
f 8/8/8 3/4/3 7/3/7
f 8/8/8 1/10/1 4/9/4
f 4/7/4 1/6/1 2/5/2
f 6/14/6 5/11/5 8/8/8
f 2/13/2 1/12/1 5/11/5
f 3/2/3 2/1/2 6/14/6
f 8/8/8 4/7/4 3/4/3
f 8/8/8 5/11/5 1/10/1
