####
#
# OBJ File Generated by Meshlab
#
####
# Object sphere.obj
#
# Vertices: 162
# Faces: 320
#
####
vn -0.000000 0.000000 -1.000000
v 0.000000 0.500000 -2.545584
vn 0.723607 -0.525726 -0.447218
v 1.841985 -0.838265 -1.138423
vn -0.276389 -0.850649 -0.447219
v -0.703561 -1.665376 -1.138423
vn -0.894426 0.000000 -0.447216
v -2.276834 0.500000 -1.138423
vn -0.276389 0.850649 -0.447219
v -0.703561 2.665376 -1.138423
vn 0.723607 0.525726 -0.447218
v 1.841985 1.838265 -1.138423
vn 0.276389 -0.850649 0.447219
v 0.703561 -1.665376 1.138423
vn -0.723607 -0.525726 0.447218
v -1.841985 -0.838265 1.138423
vn -0.723607 0.525726 0.447218
v -1.841985 1.838265 1.138423
vn 0.276389 0.850649 0.447219
v 0.703561 2.665376 1.138423
vn 0.894426 0.000000 0.447216
v 2.276834 0.500000 1.138423
vn 0.000000 0.000000 1.000000
v 0.000000 0.500000 2.545584
vn 0.425323 -0.309012 -0.850654
v 1.082695 -0.286615 -2.165412
vn -0.162456 -0.499996 -0.850654
v -0.413544 -0.772780 -2.165412
vn 0.262869 -0.809013 -0.525736
v 0.669155 -1.559407 -1.338310
vn 0.425323 0.309012 -0.850654
v 1.082695 1.286615 -2.165412
vn 0.850648 0.000000 -0.525735
v 2.165396 0.500000 -1.338305
vn -0.525729 0.000000 -0.850652
v -1.338289 0.500000 -2.165406
vn -0.688190 -0.499998 -0.525735
v -1.751844 -0.772784 -1.338306
vn -0.162456 0.499996 -0.850654
v -0.413544 1.772780 -2.165412
vn -0.688190 0.499997 -0.525735
v -1.751844 1.772784 -1.338306
vn 0.262869 0.809013 -0.525736
v 0.669155 2.559407 -1.338310
vn 0.951057 0.309014 -0.000000
v 2.420998 1.286618 0.000000
vn 0.951057 -0.309014 -0.000000
v 2.420998 -0.286618 0.000000
vn 0.587786 -0.809016 0.000000
v 1.496258 -1.559420 0.000000
vn 0.000000 -1.000000 0.000000
v 0.000000 -2.045584 0.000000
vn -0.587786 -0.809016 -0.000000
v -1.496258 -1.559420 0.000000
vn -0.951057 -0.309014 0.000000
v -2.420998 -0.286618 0.000000
vn -0.951057 0.309014 0.000000
v -2.420998 1.286618 0.000000
vn -0.587786 0.809017 -0.000000
v -1.496258 2.559420 0.000000
vn 0.000000 1.000000 0.000000
v 0.000000 3.045584 0.000000
vn 0.587786 0.809017 0.000000
v 1.496258 2.559420 0.000000
vn 0.688190 -0.499997 0.525735
v 1.751844 -0.772784 1.338306
vn -0.262869 -0.809013 0.525736
v -0.669155 -1.559407 1.338310
vn -0.850648 0.000000 0.525735
v -2.165396 0.500000 1.338305
vn -0.262869 0.809013 0.525736
v -0.669155 2.559407 1.338310
vn 0.688190 0.499997 0.525735
v 1.751844 1.772784 1.338306
vn 0.525729 0.000000 0.850652
v 1.338289 0.500000 2.165406
vn 0.162456 -0.499996 0.850654
v 0.413544 -0.772780 2.165412
vn -0.425323 -0.309012 0.850654
v -1.082695 -0.286615 2.165412
vn -0.425323 0.309012 0.850654
v -1.082695 1.286615 2.165412
vn 0.162456 0.499996 0.850654
v 0.413544 1.772780 2.165412
vn 0.491326 0.710500 0.503774
v 1.276288 2.287111 1.287372
vn 0.827551 0.247732 0.503774
v 2.094042 1.161573 1.287364
vn 0.230852 0.710498 0.664755
v 0.580657 2.287107 1.717290
vn 0.080493 0.247733 0.965479
v 0.214953 1.161570 2.448698
vn 0.747057 0.000000 0.664760
v 1.879084 0.500000 1.717278
vn 0.260483 0.000000 0.965478
v 0.695621 0.500000 2.448696
vn 0.450803 0.514505 0.729425
v 1.138412 1.838283 1.842014
vn 0.371277 0.269749 0.888476
v 0.920993 1.169140 2.276845
vn 0.628631 0.269749 0.729423
v 1.624578 1.169142 1.842008
vn -0.523899 0.686834 0.503775
v -1.305256 2.266063 1.287372
vn 0.020125 0.863601 0.503775
v 0.017884 2.695985 1.287373
vn -0.604387 0.439108 0.664755
v -1.520209 1.604483 1.717289
vn -0.210735 0.153107 0.965479
v -0.562767 0.908869 2.448698
vn -0.350020 0.587728 0.729425
v -0.921001 1.996242 1.842015
vn -0.141817 0.436461 0.888476
v -0.351793 1.582687 2.276847
vn -0.062293 0.681218 0.729425
v -0.134382 2.251834 1.842015
vn -0.815114 -0.286008 0.503774
v -2.082980 -0.195611 1.287369
vn -0.815114 0.286008 0.503774
v -2.082980 1.195611 1.287369
vn -0.604387 -0.439108 0.664755
v -1.520209 -0.604483 1.717289
vn -0.210735 -0.153107 0.965479
v -0.562767 0.091131 2.448698
vn -0.667127 -0.151266 0.729424
v -1.707621 0.086452 1.842012
vn -0.458924 -0.000000 0.888475
v -1.138410 0.500000 2.276845
vn -0.667127 0.151266 0.729424
v -1.707621 0.913548 1.842012
vn 0.020125 -0.863601 0.503775
v 0.017884 -1.695985 1.287373
vn -0.523899 -0.686834 0.503775
v -1.305256 -1.266063 1.287372
vn 0.230852 -0.710498 0.664755
v 0.580657 -1.287108 1.717290
vn 0.080493 -0.247733 0.965479
v 0.214953 -0.161570 2.448698
vn -0.062293 -0.681218 0.729425
v -0.134382 -1.251834 1.842015
vn -0.141817 -0.436461 0.888476
v -0.351793 -0.582687 2.276847
vn -0.350020 -0.587728 0.729425
v -0.921001 -0.996242 1.842015
vn 0.491326 -0.710500 0.503774
v 1.276288 -1.287111 1.287372
vn 0.827551 -0.247732 0.503774
v 2.094042 -0.161573 1.287364
vn 0.628631 -0.269749 0.729423
v 1.624578 -0.169142 1.842008
vn 0.371277 -0.269749 0.888476
v 0.920993 -0.169140 2.276845
vn 0.450803 -0.514505 0.729425
v 1.138412 -0.838283 1.842014
vn 0.684881 0.686836 -0.243299
v 1.735175 2.266073 -0.591738
vn 0.441581 0.863604 0.243300
v 1.143438 2.695995 0.591738
vn 0.864863 0.439110 -0.243299
v 2.215842 1.604486 -0.591738
vn 0.957794 0.153107 0.243289
v 2.441859 0.908871 0.591735
vn 0.808949 0.587732 0.013140
v 2.059425 1.996252 0.000000
vn 0.858098 0.436464 0.270495
v 2.193795 1.582693 0.703590
vn 0.680271 0.681222 0.270496
v 1.707630 2.251845 0.703590
vn -0.441581 0.863604 -0.243300
v -1.143438 2.695995 -0.591738
vn -0.684881 0.686836 0.243299
v -1.735175 2.266073 0.591738
vn -0.150363 0.958225 -0.243300
v -0.365702 2.948695 -0.591738
vn 0.150363 0.958225 0.243300
v 0.365702 2.948695 0.591738
vn -0.308991 0.950974 0.013140
v -0.786629 2.920994 0.000000
vn -0.149940 0.950973 0.270497
v -0.351796 2.920991 0.703592
vn -0.437669 0.857483 0.270497
v -1.138426 2.665397 0.703591
vn -0.957794 -0.153107 -0.243289
v -2.441859 0.091129 -0.591735
vn -0.864863 -0.439110 0.243299
v -2.215842 -0.604486 0.591738
vn -0.957794 0.153107 -0.243289
v -2.441859 0.908871 -0.591735
vn -0.864863 0.439110 0.243299
v -2.215842 1.604486 0.591738
vn -0.999914 0.000000 0.013140
v -2.545584 0.500000 0.000000
vn -0.950763 0.151266 0.270496
v -2.411211 0.913550 0.703589
vn -0.950763 -0.151266 0.270496
v -2.411211 0.086450 0.703589
vn -0.150363 -0.958225 -0.243300
v -0.365702 -1.948695 -0.591738
vn 0.150363 -0.958225 0.243300
v 0.365702 -1.948695 0.591738
vn -0.441581 -0.863604 -0.243300
v -1.143438 -1.695995 -0.591738
vn -0.684881 -0.686836 0.243299
v -1.735175 -1.266073 0.591738
vn -0.308991 -0.950974 0.013140
v -0.786629 -1.920994 0.000000
vn -0.437669 -0.857483 0.270497
v -1.138426 -1.665397 0.703591
vn -0.149940 -0.950973 0.270497
v -0.351796 -1.920991 0.703592
vn 0.864863 -0.439110 -0.243299
v 2.215842 -0.604486 -0.591738
vn 0.957794 -0.153107 0.243289
v 2.441859 0.091129 0.591735
vn 0.441581 -0.863604 0.243300
v 1.143438 -1.695995 0.591738
vn 0.684881 -0.686836 -0.243299
v 1.735175 -1.266073 -0.591738
vn 0.808949 -0.587732 0.013140
v 2.059425 -0.996252 0.000000
vn 0.680271 -0.681222 0.270496
v 1.707630 -1.251845 0.703590
vn 0.858098 -0.436464 0.270495
v 2.193795 -0.582693 0.703590
vn -0.020125 0.863601 -0.503775
v -0.017884 2.695985 -1.287373
vn 0.523899 0.686834 -0.503775
v 1.305256 2.266063 -1.287372
vn 0.149940 0.950973 -0.270497
v 0.351796 2.920991 -0.703592
vn 0.308991 0.950974 -0.013140
v 0.786629 2.920994 0.000000
vn 0.437669 0.857483 -0.270497
v 1.138426 2.665397 -0.703591
vn -0.827551 0.247732 -0.503774
v -2.094042 1.161573 -1.287364
vn -0.491326 0.710500 -0.503774
v -1.276288 2.287111 -1.287372
vn -0.858098 0.436464 -0.270495
v -2.193795 1.582693 -0.703590
vn -0.808949 0.587732 -0.013140
v -2.059425 1.996252 0.000000
vn -0.680271 0.681222 -0.270496
v -1.707630 2.251845 -0.703590
vn -0.491326 -0.710500 -0.503774
v -1.276288 -1.287111 -1.287372
vn -0.827551 -0.247732 -0.503774
v -2.094042 -0.161573 -1.287364
vn -0.680271 -0.681222 -0.270496
v -1.707630 -1.251845 -0.703590
vn -0.808949 -0.587732 -0.013140
v -2.059425 -0.996252 0.000000
vn -0.858098 -0.436464 -0.270495
v -2.193795 -0.582693 -0.703590
vn -0.020125 -0.863601 -0.503775
v -0.017884 -1.695985 -1.287373
vn 0.523899 -0.686834 -0.503775
v 1.305256 -1.266063 -1.287372
vn 0.437669 -0.857483 -0.270497
v 1.138426 -1.665397 -0.703591
vn 0.308991 -0.950974 -0.013140
v 0.786629 -1.920994 0.000000
vn 0.149940 -0.950973 -0.270497
v 0.351796 -1.920991 -0.703592
vn 0.815114 0.286008 -0.503774
v 2.082980 1.195611 -1.287369
vn 0.815114 -0.286008 -0.503774
v 2.082980 -0.195611 -1.287369
vn 0.950763 0.151266 -0.270496
v 2.411211 0.913550 -0.703589
vn 0.999914 0.000000 -0.013140
v 2.545584 0.500000 0.000000
vn 0.950763 -0.151266 -0.270496
v 2.411211 0.086450 -0.703589
vn -0.230852 0.710498 -0.664755
v -0.580657 2.287107 -1.717290
vn -0.080493 0.247733 -0.965479
v -0.214953 1.161570 -2.448698
vn 0.604387 0.439108 -0.664755
v 1.520209 1.604483 -1.717289
vn 0.210735 0.153107 -0.965479
v 0.562767 0.908869 -2.448698
vn 0.141817 0.436461 -0.888476
v 0.351793 1.582687 -2.276847
vn 0.350020 0.587729 -0.729425
v 0.921001 1.996242 -1.842015
vn 0.062293 0.681218 -0.729425
v 0.134382 2.251834 -1.842015
vn -0.747057 -0.000000 -0.664760
v -1.879084 0.500000 -1.717278
vn -0.260483 0.000000 -0.965478
v -0.695621 0.500000 -2.448696
vn -0.371277 0.269749 -0.888476
v -0.920993 1.169140 -2.276845
vn -0.450803 0.514505 -0.729425
v -1.138412 1.838283 -1.842014
vn -0.628631 0.269749 -0.729423
v -1.624578 1.169142 -1.842008
vn -0.230852 -0.710498 -0.664755
v -0.580657 -1.287108 -1.717290
vn -0.080493 -0.247733 -0.965479
v -0.214953 -0.161570 -2.448698
vn -0.371277 -0.269749 -0.888476
v -0.920993 -0.169140 -2.276845
vn -0.628631 -0.269749 -0.729423
v -1.624578 -0.169142 -1.842008
vn -0.450803 -0.514505 -0.729425
v -1.138412 -0.838283 -1.842014
vn 0.210735 -0.153107 -0.965479
v 0.562767 0.091131 -2.448698
vn 0.604387 -0.439108 -0.664755
v 1.520209 -0.604483 -1.717289
vn 0.458924 -0.000000 -0.888475
v 1.138410 0.500000 -2.276845
vn 0.667127 0.151266 -0.729424
v 1.707621 0.913548 -1.842012
vn 0.667127 -0.151266 -0.729424
v 1.707621 0.086452 -1.842012
vn 0.141817 -0.436461 -0.888476
v 0.351793 -0.582687 -2.276847
vn 0.062293 -0.681218 -0.729425
v 0.134382 -1.251834 -1.842015
vn 0.350020 -0.587728 -0.729425
v 0.921001 -0.996242 -1.842015
# 162 vertices, 0 vertices normals

f 160//160 162//162 161//161
f 157//157 158//158 159//159
f 152//152 154//154 153//153
f 147//147 149//149 148//148
f 142//142 144//144 143//143
f 135//135 136//136 137//137
f 130//130 131//131 132//132
f 125//125 126//126 127//127
f 120//120 121//121 122//122
f 115//115 116//116 117//117
f 110//110 112//112 111//111
f 103//103 105//105 104//104
f 96//96 98//98 97//97
f 89//89 91//91 90//90
f 82//82 84//84 83//83
f 75//75 76//76 77//77
f 70//70 71//71 72//72
f 63//63 64//64 65//65
f 56//56 57//57 58//58
f 49//49 50//50 51//51
f 45//45 49//49 43//43
f 48//48 50//50 46//46
f 44//44 51//51 47//47
f 54//54 56//56 52//52
f 46//46 57//57 55//55
f 53//53 58//58 45//45
f 61//61 63//63 59//59
f 55//55 64//64 62//62
f 60//60 65//65 54//54
f 68//68 70//70 66//66
f 62//62 71//71 69//69
f 67//67 72//72 61//61
f 47//47 75//75 74//74
f 69//69 76//76 48//48
f 73//73 77//77 68//68
f 80//80 78//78 82//82
f 44//44 81//81 83//83
f 79//79 43//43 84//84
f 87//87 85//85 89//89
f 53//53 88//88 90//90
f 86//86 52//52 91//91
f 94//94 92//92 96//96
f 60//60 95//95 97//97
f 93//93 59//59 98//98
f 101//101 99//99 103//103
f 67//67 102//102 104//104
f 100//100 66//66 105//105
f 109//109 106//106 110//110
f 73//73 108//108 111//111
f 107//107 74//74 112//112
f 87//87 115//115 113//113
f 79//79 116//116 88//88
f 114//114 117//117 78//78
f 94//94 120//120 118//118
f 86//86 121//121 95//95
f 119//119 122//122 85//85
f 101//101 125//125 123//123
f 93//93 126//126 102//102
f 124//124 127//127 92//92
f 109//109 130//130 129//129
f 100//100 131//131 108//108
f 128//128 132//132 99//99
f 80//80 135//135 133//133
f 107//107 136//136 81//81
f 134//134 137//137 106//106
f 141//141 139//139 142//142
f 114//114 140//140 143//143
f 138//138 113//113 144//144
f 139//139 146//146 147//147
f 119//119 138//138 148//148
f 145//145 118//118 149//149
f 146//146 151//151 152//152
f 124//124 145//145 153//153
f 150//150 123//123 154//154
f 141//141 157//157 155//155
f 133//133 158//158 140//140
f 156//156 159//159 134//134
f 151//151 155//155 160//160
f 128//128 150//150 161//161
f 156//156 129//129 162//162
f 13//13 156//156 162//162
f 15//15 162//162 129//129
f 2//2 129//129 156//156
f 15//15 128//128 161//161
f 14//14 161//161 150//150
f 3//3 150//150 128//128
f 14//14 151//151 160//160
f 13//13 160//160 155//155
f 1//1 155//155 151//151
f 13//13 159//159 156//156
f 17//17 134//134 159//159
f 2//2 156//156 134//134
f 17//17 158//158 133//133
f 16//16 140//140 158//158
f 6//6 133//133 140//140
f 16//16 157//157 141//141
f 13//13 155//155 157//157
f 1//1 141//141 155//155
f 14//14 150//150 154//154
f 19//19 154//154 123//123
f 3//3 123//123 150//150
f 19//19 124//124 153//153
f 18//18 153//153 145//145
f 4//4 145//145 124//124
f 18//18 146//146 152//152
f 14//14 152//152 151//151
f 1//1 151//151 146//146
f 18//18 145//145 149//149
f 21//21 149//149 118//118
f 4//4 118//118 145//145
f 21//21 119//119 148//148
f 20//20 148//148 138//138
f 5//5 138//138 119//119
f 20//20 139//139 147//147
f 18//18 147//147 146//146
f 1//1 146//146 139//139
f 20//20 138//138 144//144
f 22//22 144//144 113//113
f 5//5 113//113 138//138
f 22//22 114//114 143//143
f 16//16 143//143 140//140
f 6//6 140//140 114//114
f 16//16 141//141 142//142
f 20//20 142//142 139//139
f 1//1 139//139 141//141
f 17//17 137//137 134//134
f 24//24 106//106 137//137
f 2//2 134//134 106//106
f 24//24 136//136 107//107
f 23//23 81//81 136//136
f 11//11 107//107 81//81
f 23//23 135//135 80//80
f 17//17 133//133 135//135
f 6//6 80//80 133//133
f 15//15 132//132 128//128
f 26//26 99//99 132//132
f 3//3 128//128 99//99
f 26//26 131//131 100//100
f 25//25 108//108 131//131
f 7//7 100//100 108//108
f 25//25 130//130 109//109
f 15//15 129//129 130//130
f 2//2 109//109 129//129
f 19//19 127//127 124//124
f 28//28 92//92 127//127
f 4//4 124//124 92//92
f 28//28 126//126 93//93
f 27//27 102//102 126//126
f 8//8 93//93 102//102
f 27//27 125//125 101//101
f 19//19 123//123 125//125
f 3//3 101//101 123//123
f 21//21 122//122 119//119
f 30//30 85//85 122//122
f 5//5 119//119 85//85
f 30//30 121//121 86//86
f 29//29 95//95 121//121
f 9//9 86//86 95//95
f 29//29 120//120 94//94
f 21//21 118//118 120//120
f 4//4 94//94 118//118
f 22//22 117//117 114//114
f 32//32 78//78 117//117
f 6//6 114//114 78//78
f 32//32 116//116 79//79
f 31//31 88//88 116//116
f 10//10 79//79 88//88
f 31//31 115//115 87//87
f 22//22 113//113 115//115
f 5//5 87//87 113//113
f 24//24 107//107 112//112
f 33//33 112//112 74//74
f 11//11 74//74 107//107
f 33//33 73//73 111//111
f 25//25 111//111 108//108
f 7//7 108//108 73//73
f 25//25 109//109 110//110
f 24//24 110//110 106//106
f 2//2 106//106 109//109
f 26//26 100//100 105//105
f 34//34 105//105 66//66
f 7//7 66//66 100//100
f 34//34 67//67 104//104
f 27//27 104//104 102//102
f 8//8 102//102 67//67
f 27//27 101//101 103//103
f 26//26 103//103 99//99
f 3//3 99//99 101//101
f 28//28 93//93 98//98
f 35//35 98//98 59//59
f 8//8 59//59 93//93
f 35//35 60//60 97//97
f 29//29 97//97 95//95
f 9//9 95//95 60//60
f 29//29 94//94 96//96
f 28//28 96//96 92//92
f 4//4 92//92 94//94
f 30//30 86//86 91//91
f 36//36 91//91 52//52
f 9//9 52//52 86//86
f 36//36 53//53 90//90
f 31//31 90//90 88//88
f 10//10 88//88 53//53
f 31//31 87//87 89//89
f 30//30 89//89 85//85
f 5//5 85//85 87//87
f 32//32 79//79 84//84
f 37//37 84//84 43//43
f 10//10 43//43 79//79
f 37//37 44//44 83//83
f 23//23 83//83 81//81
f 11//11 81//81 44//44
f 23//23 80//80 82//82
f 32//32 82//82 78//78
f 6//6 78//78 80//80
f 33//33 77//77 73//73
f 39//39 68//68 77//77
f 7//7 73//73 68//68
f 39//39 76//76 69//69
f 38//38 48//48 76//76
f 12//12 69//69 48//48
f 38//38 75//75 47//47
f 33//33 74//74 75//75
f 11//11 47//47 74//74
f 34//34 72//72 67//67
f 40//40 61//61 72//72
f 8//8 67//67 61//61
f 40//40 71//71 62//62
f 39//39 69//69 71//71
f 12//12 62//62 69//69
f 39//39 70//70 68//68
f 34//34 66//66 70//70
f 7//7 68//68 66//66
f 35//35 65//65 60//60
f 41//41 54//54 65//65
f 9//9 60//60 54//54
f 41//41 64//64 55//55
f 40//40 62//62 64//64
f 12//12 55//55 62//62
f 40//40 63//63 61//61
f 35//35 59//59 63//63
f 8//8 61//61 59//59
f 36//36 58//58 53//53
f 42//42 45//45 58//58
f 10//10 53//53 45//45
f 42//42 57//57 46//46
f 41//41 55//55 57//57
f 12//12 46//46 55//55
f 41//41 56//56 54//54
f 36//36 52//52 56//56
f 9//9 54//54 52//52
f 37//37 51//51 44//44
f 38//38 47//47 51//51
f 11//11 44//44 47//47
f 38//38 50//50 48//48
f 42//42 46//46 50//50
f 12//12 48//48 46//46
f 42//42 49//49 45//45
f 37//37 43//43 49//49
f 10//10 45//45 43//43
f 42//42 50//50 49//49
f 38//38 51//51 50//50
f 37//37 49//49 51//51
f 41//41 57//57 56//56
f 42//42 58//58 57//57
f 36//36 56//56 58//58
f 40//40 64//64 63//63
f 41//41 65//65 64//64
f 35//35 63//63 65//65
f 39//39 71//71 70//70
f 40//40 72//72 71//71
f 34//34 70//70 72//72
f 38//38 76//76 75//75
f 39//39 77//77 76//76
f 33//33 75//75 77//77
f 23//23 82//82 83//83
f 37//37 83//83 84//84
f 32//32 84//84 82//82
f 31//31 89//89 90//90
f 36//36 90//90 91//91
f 30//30 91//91 89//89
f 29//29 96//96 97//97
f 35//35 97//97 98//98
f 28//28 98//98 96//96
f 27//27 103//103 104//104
f 34//34 104//104 105//105
f 26//26 105//105 103//103
f 25//25 110//110 111//111
f 33//33 111//111 112//112
f 24//24 112//112 110//110
f 31//31 116//116 115//115
f 32//32 117//117 116//116
f 22//22 115//115 117//117
f 29//29 121//121 120//120
f 30//30 122//122 121//121
f 21//21 120//120 122//122
f 27//27 126//126 125//125
f 28//28 127//127 126//126
f 19//19 125//125 127//127
f 25//25 131//131 130//130
f 26//26 132//132 131//131
f 15//15 130//130 132//132
f 23//23 136//136 135//135
f 24//24 137//137 136//136
f 17//17 135//135 137//137
f 16//16 142//142 143//143
f 22//22 143//143 144//144
f 20//20 144//144 142//142
f 20//20 147//147 148//148
f 21//21 148//148 149//149
f 18//18 149//149 147//147
f 18//18 152//152 153//153
f 19//19 153//153 154//154
f 14//14 154//154 152//152
f 16//16 158//158 157//157
f 17//17 159//159 158//158
f 13//13 157//157 159//159
f 14//14 160//160 161//161
f 15//15 161//161 162//162
f 13//13 162//162 160//160
# 320 faces, 0 coords texture

# End of File
